<mxfile host="app.diagrams.net" modified="2021-01-04T13:04:56.595Z" agent="5.0 (Macintosh; Intel Mac OS X 10_14_6) AppleWebKit/537.36 (KHTML, like Gecko) Chrome/87.0.4280.67 Safari/537.36" etag="BEvKzz-nMG_AwnL5Rghp" version="14.0.1" type="github" pages="10">
  <diagram id="sX8PDF25bzgP0ymKK4ic" name="トップ">
    <mxGraphModel dx="1577" dy="945" grid="1" gridSize="10" guides="1" tooltips="1" connect="1" arrows="1" fold="1" page="1" pageScale="1" pageWidth="1654" pageHeight="1169" math="0" shadow="0">
      <root>
        <mxCell id="0" />
        <mxCell id="1" parent="0" />
        <mxCell id="NtZH743Sf9rZ-gOF_3f3-2" value="" style="rounded=0;whiteSpace=wrap;html=1;fillColor=none;" vertex="1" parent="1">
          <mxGeometry x="138.5" y="50" width="1380" height="1010" as="geometry" />
        </mxCell>
        <mxCell id="NtZH743Sf9rZ-gOF_3f3-8" value="" style="line;strokeWidth=1;rotatable=0;dashed=0;labelPosition=right;align=left;verticalAlign=middle;spacingTop=0;spacingLeft=6;points=[];portConstraint=eastwest;fillColor=none;" vertex="1" parent="1">
          <mxGeometry x="137" y="150" width="1383" height="10" as="geometry" />
        </mxCell>
        <mxCell id="NtZH743Sf9rZ-gOF_3f3-9" value="" style="endArrow=none;html=1;rounded=0;" edge="1" parent="1" target="NtZH743Sf9rZ-gOF_3f3-2">
          <mxGeometry relative="1" as="geometry">
            <mxPoint x="137" y="990" as="sourcePoint" />
            <mxPoint x="297" y="990" as="targetPoint" />
          </mxGeometry>
        </mxCell>
        <mxCell id="NtZH743Sf9rZ-gOF_3f3-17" value="" style="line;strokeWidth=1;rotatable=0;dashed=0;labelPosition=right;align=left;verticalAlign=middle;spacingTop=0;spacingLeft=6;points=[];portConstraint=eastwest;fillColor=none;" vertex="1" parent="1">
          <mxGeometry x="140" y="980" width="1380" height="10" as="geometry" />
        </mxCell>
        <mxCell id="NtZH743Sf9rZ-gOF_3f3-19" value="&lt;font style=&quot;font-size: 24px&quot;&gt;LOGO&lt;/font&gt;" style="verticalLabelPosition=middle;verticalAlign=middle;html=1;shape=mxgraph.basic.rect;fillColor2=none;strokeWidth=1;size=20;indent=5;align=center;labelPosition=center;" vertex="1" parent="1">
          <mxGeometry x="170" y="80" width="240" height="60" as="geometry" />
        </mxCell>
        <mxCell id="NtZH743Sf9rZ-gOF_3f3-20" value="&lt;font style=&quot;font-size: 18px&quot;&gt;TOP&lt;/font&gt;" style="verticalLabelPosition=middle;verticalAlign=middle;html=1;shape=mxgraph.basic.rect;fillColor2=none;strokeWidth=1;size=20;indent=5;fillColor=#ffffff;align=center;labelPosition=center;" vertex="1" parent="1">
          <mxGeometry x="960" y="70" width="140" height="60" as="geometry" />
        </mxCell>
        <mxCell id="NtZH743Sf9rZ-gOF_3f3-21" value="&lt;font style=&quot;font-size: 18px&quot;&gt;ABOUT&lt;/font&gt;" style="verticalLabelPosition=middle;verticalAlign=middle;html=1;shape=mxgraph.basic.rect;fillColor2=none;strokeWidth=1;size=20;indent=5;fillColor=#ffffff;align=center;labelPosition=center;" vertex="1" parent="1">
          <mxGeometry x="1120" y="70" width="120" height="60" as="geometry" />
        </mxCell>
        <mxCell id="NtZH743Sf9rZ-gOF_3f3-22" value="&lt;font style=&quot;font-size: 18px&quot;&gt;©️ジムトモ&lt;/font&gt;" style="text;html=1;strokeColor=none;fillColor=none;align=center;verticalAlign=middle;whiteSpace=wrap;rounded=0;" vertex="1" parent="1">
          <mxGeometry x="760" y="1020" width="120" height="20" as="geometry" />
        </mxCell>
        <mxCell id="NtZH743Sf9rZ-gOF_3f3-24" value="&lt;font style=&quot;font-size: 36px&quot;&gt;こんにちは！&lt;br&gt;ジムトモはジムでのコミュニケーションを目的とした&lt;br&gt;コミュニケーションWEBサイトです！&lt;br&gt;&lt;/font&gt;" style="text;html=1;strokeColor=none;fillColor=none;align=center;verticalAlign=middle;whiteSpace=wrap;rounded=0;" vertex="1" parent="1">
          <mxGeometry x="327" y="280" width="1000" height="150" as="geometry" />
        </mxCell>
        <mxCell id="NtZH743Sf9rZ-gOF_3f3-25" value="&lt;font style=&quot;font-size: 24px&quot;&gt;早速始める！！&lt;/font&gt;" style="verticalLabelPosition=middle;verticalAlign=middle;html=1;shape=mxgraph.basic.rect;fillColor2=none;strokeWidth=1;size=20;indent=5;fillColor=#ffffff;align=center;labelPosition=center;" vertex="1" parent="1">
          <mxGeometry x="620" y="500" width="440" height="60" as="geometry" />
        </mxCell>
        <mxCell id="NtZH743Sf9rZ-gOF_3f3-26" value="&lt;font style=&quot;font-size: 24px&quot;&gt;ジムトモとは？&lt;/font&gt;" style="verticalLabelPosition=middle;verticalAlign=middle;html=1;shape=mxgraph.basic.rect;fillColor2=none;strokeWidth=1;size=20;indent=5;fillColor=#ffffff;align=center;labelPosition=center;" vertex="1" parent="1">
          <mxGeometry x="620" y="600" width="440" height="60" as="geometry" />
        </mxCell>
        <mxCell id="FWPmcDgrrpToMPqlYjag-1" value="&lt;font style=&quot;font-size: 18px&quot;&gt;新規登録&lt;/font&gt;" style="verticalLabelPosition=middle;verticalAlign=middle;html=1;shape=mxgraph.basic.rect;fillColor2=none;strokeWidth=1;size=20;indent=5;fillColor=#ffffff;align=center;labelPosition=center;" vertex="1" parent="1">
          <mxGeometry x="1260" y="70" width="120" height="60" as="geometry" />
        </mxCell>
        <mxCell id="FWPmcDgrrpToMPqlYjag-2" value="&lt;span style=&quot;font-size: 18px&quot;&gt;ログイン&lt;br&gt;&lt;/span&gt;" style="verticalLabelPosition=middle;verticalAlign=middle;html=1;shape=mxgraph.basic.rect;fillColor2=none;strokeWidth=1;size=20;indent=5;fillColor=#ffffff;align=center;labelPosition=center;" vertex="1" parent="1">
          <mxGeometry x="1390" y="70" width="120" height="60" as="geometry" />
        </mxCell>
      </root>
    </mxGraphModel>
  </diagram>
  <diagram id="bLvAgA5qEwk-LL37ub39" name="アバウト">
    <mxGraphModel dx="1577" dy="945" grid="1" gridSize="10" guides="1" tooltips="1" connect="1" arrows="1" fold="1" page="1" pageScale="1" pageWidth="1654" pageHeight="1169" math="0" shadow="0">
      <root>
        <mxCell id="ftpEcNEryvSzcQoIp7-X-0" />
        <mxCell id="ftpEcNEryvSzcQoIp7-X-1" parent="ftpEcNEryvSzcQoIp7-X-0" />
        <mxCell id="VIwDnIqBXZ4P4yikGyFm-0" value="" style="rounded=0;whiteSpace=wrap;html=1;fillColor=none;" vertex="1" parent="ftpEcNEryvSzcQoIp7-X-1">
          <mxGeometry x="160" y="50" width="1380" height="1010" as="geometry" />
        </mxCell>
        <mxCell id="dDT1iHOh3P4UcyybZQKl-0" value="&lt;font style=&quot;font-size: 24px&quot;&gt;LOGO&lt;/font&gt;" style="verticalLabelPosition=middle;verticalAlign=middle;html=1;shape=mxgraph.basic.rect;fillColor2=none;strokeWidth=1;size=20;indent=5;align=center;labelPosition=center;" vertex="1" parent="ftpEcNEryvSzcQoIp7-X-1">
          <mxGeometry x="170" y="80" width="240" height="60" as="geometry" />
        </mxCell>
        <mxCell id="dIF7iw-EWMnhFYqTY4e2-0" value="" style="line;strokeWidth=1;rotatable=0;dashed=0;labelPosition=right;align=left;verticalAlign=middle;spacingTop=0;spacingLeft=6;points=[];portConstraint=eastwest;fillColor=none;" vertex="1" parent="ftpEcNEryvSzcQoIp7-X-1">
          <mxGeometry x="160" y="150" width="1360" height="10" as="geometry" />
        </mxCell>
        <mxCell id="H8I9omI7yn1xXHJn_vw3-0" value="&lt;font style=&quot;font-size: 18px&quot;&gt;TOP&lt;/font&gt;" style="verticalLabelPosition=middle;verticalAlign=middle;html=1;shape=mxgraph.basic.rect;fillColor2=none;strokeWidth=1;size=20;indent=5;fillColor=#ffffff;align=center;labelPosition=center;" vertex="1" parent="ftpEcNEryvSzcQoIp7-X-1">
          <mxGeometry x="1040" y="80" width="140" height="60" as="geometry" />
        </mxCell>
        <mxCell id="4WR4Ig6IwshygOF9KwUJ-0" value="&lt;font style=&quot;font-size: 18px&quot;&gt;ABOUT&lt;/font&gt;" style="verticalLabelPosition=middle;verticalAlign=middle;html=1;shape=mxgraph.basic.rect;fillColor2=none;strokeWidth=1;size=20;indent=5;fillColor=#ffffff;align=center;labelPosition=center;" vertex="1" parent="ftpEcNEryvSzcQoIp7-X-1">
          <mxGeometry x="1200" y="80" width="120" height="60" as="geometry" />
        </mxCell>
        <mxCell id="zsgMGH2U2VKGGGK1tpQB-0" value="" style="line;strokeWidth=1;rotatable=0;dashed=0;labelPosition=right;align=left;verticalAlign=middle;spacingTop=0;spacingLeft=6;points=[];portConstraint=eastwest;fillColor=none;" vertex="1" parent="ftpEcNEryvSzcQoIp7-X-1">
          <mxGeometry x="160" y="980" width="1380" height="10" as="geometry" />
        </mxCell>
        <mxCell id="8jf5Wd_0UY1Y-AJaYyoA-0" value="&lt;font style=&quot;font-size: 18px&quot;&gt;©️ジムトモ&lt;/font&gt;" style="text;html=1;strokeColor=none;fillColor=none;align=center;verticalAlign=middle;whiteSpace=wrap;rounded=0;" vertex="1" parent="ftpEcNEryvSzcQoIp7-X-1">
          <mxGeometry x="760" y="1020" width="120" height="20" as="geometry" />
        </mxCell>
        <mxCell id="SekSxgpQAXPCXCAio9Cq-5" value="&lt;font style=&quot;font-size: 36px&quot;&gt;ジムトモとは？&lt;/font&gt;" style="text;strokeColor=none;fillColor=none;html=1;fontSize=24;fontStyle=1;verticalAlign=middle;align=center;" vertex="1" parent="ftpEcNEryvSzcQoIp7-X-1">
          <mxGeometry x="722" y="210" width="210" height="30" as="geometry" />
        </mxCell>
        <mxCell id="SekSxgpQAXPCXCAio9Cq-8" value="&lt;font style=&quot;font-size: 36px&quot;&gt;・ジムの仲間とコミュニケーションが取れるサイトです！&lt;/font&gt;" style="text;html=1;strokeColor=none;fillColor=none;align=center;verticalAlign=middle;whiteSpace=wrap;rounded=0;" vertex="1" parent="ftpEcNEryvSzcQoIp7-X-1">
          <mxGeometry x="362.5" y="340" width="975" height="20" as="geometry" />
        </mxCell>
        <mxCell id="SekSxgpQAXPCXCAio9Cq-9" value="&lt;font style=&quot;font-size: 36px&quot;&gt;・検索して頂くか、無ければ自分でジムを登録できます！&lt;/font&gt;" style="text;html=1;strokeColor=none;fillColor=none;align=center;verticalAlign=middle;whiteSpace=wrap;rounded=0;" vertex="1" parent="ftpEcNEryvSzcQoIp7-X-1">
          <mxGeometry x="375" y="600" width="1005" height="20" as="geometry" />
        </mxCell>
        <mxCell id="SekSxgpQAXPCXCAio9Cq-12" value="&lt;font style=&quot;font-size: 36px&quot;&gt;仲間と高め会いながら　レッツパンプアップ！&lt;/font&gt;" style="text;html=1;strokeColor=none;fillColor=none;align=center;verticalAlign=middle;whiteSpace=wrap;rounded=0;" vertex="1" parent="ftpEcNEryvSzcQoIp7-X-1">
          <mxGeometry x="410" y="830" width="880" height="20" as="geometry" />
        </mxCell>
        <mxCell id="SekSxgpQAXPCXCAio9Cq-13" value="&lt;font style=&quot;font-size: 36px&quot;&gt;どうやってジムを探すの？&lt;/font&gt;" style="text;strokeColor=none;fillColor=none;html=1;fontSize=24;fontStyle=1;verticalAlign=middle;align=center;" vertex="1" parent="ftpEcNEryvSzcQoIp7-X-1">
          <mxGeometry x="665" y="500" width="330" height="30" as="geometry" />
        </mxCell>
      </root>
    </mxGraphModel>
  </diagram>
  <diagram id="RGN--1uirbUa-3PSGwTJ" name="登録画面">
    <mxGraphModel dx="1892" dy="1134" grid="1" gridSize="10" guides="1" tooltips="1" connect="1" arrows="1" fold="1" page="1" pageScale="1" pageWidth="1654" pageHeight="1169" math="0" shadow="0">
      <root>
        <mxCell id="JL3x1tFgeX2Gd9nTqzUn-0" />
        <mxCell id="JL3x1tFgeX2Gd9nTqzUn-1" parent="JL3x1tFgeX2Gd9nTqzUn-0" />
        <mxCell id="WwGsBpX4122QO5Fgbtcl-0" value="" style="rounded=0;whiteSpace=wrap;html=1;fillColor=none;" vertex="1" parent="JL3x1tFgeX2Gd9nTqzUn-1">
          <mxGeometry x="150" y="90" width="1380" height="1010" as="geometry" />
        </mxCell>
        <mxCell id="08IGXDMDY4v-F9Ly6sVw-0" value="&lt;font style=&quot;font-size: 18px&quot;&gt;©️ジムトモ&lt;/font&gt;" style="text;html=1;strokeColor=none;fillColor=none;align=center;verticalAlign=middle;whiteSpace=wrap;rounded=0;" vertex="1" parent="JL3x1tFgeX2Gd9nTqzUn-1">
          <mxGeometry x="790" y="1050" width="120" height="20" as="geometry" />
        </mxCell>
        <mxCell id="RqBJ2H6mfIA8eYU0we4d-0" value="" style="line;strokeWidth=1;rotatable=0;dashed=0;labelPosition=right;align=left;verticalAlign=middle;spacingTop=0;spacingLeft=6;points=[];portConstraint=eastwest;fillColor=none;" vertex="1" parent="JL3x1tFgeX2Gd9nTqzUn-1">
          <mxGeometry x="148.5" y="1010" width="1380" height="10" as="geometry" />
        </mxCell>
        <mxCell id="5bvBfOXmsTIJIOGz9M6Z-0" value="&lt;font style=&quot;font-size: 24px&quot;&gt;LOGO&lt;/font&gt;" style="verticalLabelPosition=middle;verticalAlign=middle;html=1;shape=mxgraph.basic.rect;fillColor2=none;strokeWidth=1;size=20;indent=5;align=center;labelPosition=center;" vertex="1" parent="JL3x1tFgeX2Gd9nTqzUn-1">
          <mxGeometry x="170" y="120" width="240" height="60" as="geometry" />
        </mxCell>
        <mxCell id="FiurGgFm9dN1c3PLnLnA-0" value="" style="line;strokeWidth=1;rotatable=0;dashed=0;labelPosition=right;align=left;verticalAlign=middle;spacingTop=0;spacingLeft=6;points=[];portConstraint=eastwest;fillColor=none;" vertex="1" parent="JL3x1tFgeX2Gd9nTqzUn-1">
          <mxGeometry x="148.5" y="200" width="1383" height="10" as="geometry" />
        </mxCell>
        <mxCell id="LqhKL8WoW9AfLJmkRwyF-0" value="&lt;font style=&quot;font-size: 18px&quot;&gt;TOP&lt;/font&gt;" style="verticalLabelPosition=middle;verticalAlign=middle;html=1;shape=mxgraph.basic.rect;fillColor2=none;strokeWidth=1;size=20;indent=5;fillColor=#ffffff;align=center;labelPosition=center;" vertex="1" parent="JL3x1tFgeX2Gd9nTqzUn-1">
          <mxGeometry x="910" y="120" width="140" height="60" as="geometry" />
        </mxCell>
        <mxCell id="YZrT8HJMQ7vM1HgPI2Wn-0" value="&lt;font style=&quot;font-size: 18px&quot;&gt;ABOUT&lt;/font&gt;" style="verticalLabelPosition=middle;verticalAlign=middle;html=1;shape=mxgraph.basic.rect;fillColor2=none;strokeWidth=1;size=20;indent=5;fillColor=#ffffff;align=center;labelPosition=center;" vertex="1" parent="JL3x1tFgeX2Gd9nTqzUn-1">
          <mxGeometry x="1090" y="120" width="120" height="60" as="geometry" />
        </mxCell>
        <mxCell id="YZrT8HJMQ7vM1HgPI2Wn-1" value="&lt;font style=&quot;font-size: 36px&quot;&gt;新規登録&lt;/font&gt;" style="text;strokeColor=none;fillColor=none;html=1;fontSize=24;fontStyle=1;verticalAlign=middle;align=center;" vertex="1" parent="JL3x1tFgeX2Gd9nTqzUn-1">
          <mxGeometry x="240" y="260" width="260" height="40" as="geometry" />
        </mxCell>
        <mxCell id="YZrT8HJMQ7vM1HgPI2Wn-2" value="" style="rounded=0;whiteSpace=wrap;html=1;fillColor=#ffffff;align=center;" vertex="1" parent="JL3x1tFgeX2Gd9nTqzUn-1">
          <mxGeometry x="320" y="370" width="260" height="40" as="geometry" />
        </mxCell>
        <mxCell id="YZrT8HJMQ7vM1HgPI2Wn-3" value="&lt;font style=&quot;font-size: 24px&quot;&gt;メールアドレス&lt;/font&gt;" style="text;html=1;strokeColor=none;fillColor=none;align=center;verticalAlign=middle;whiteSpace=wrap;rounded=0;" vertex="1" parent="JL3x1tFgeX2Gd9nTqzUn-1">
          <mxGeometry x="290" y="330" width="220" height="20" as="geometry" />
        </mxCell>
        <mxCell id="YZrT8HJMQ7vM1HgPI2Wn-4" value="&lt;font style=&quot;font-size: 24px&quot;&gt;パスワード&lt;/font&gt;" style="text;html=1;strokeColor=none;fillColor=none;align=center;verticalAlign=middle;whiteSpace=wrap;rounded=0;" vertex="1" parent="JL3x1tFgeX2Gd9nTqzUn-1">
          <mxGeometry x="300" y="450" width="170" height="20" as="geometry" />
        </mxCell>
        <mxCell id="YZrT8HJMQ7vM1HgPI2Wn-5" value="" style="rounded=0;whiteSpace=wrap;html=1;fillColor=#ffffff;align=center;" vertex="1" parent="JL3x1tFgeX2Gd9nTqzUn-1">
          <mxGeometry x="320" y="490" width="260" height="40" as="geometry" />
        </mxCell>
        <mxCell id="YZrT8HJMQ7vM1HgPI2Wn-6" value="&lt;font style=&quot;font-size: 24px&quot;&gt;登録&lt;/font&gt;" style="html=1;shadow=0;dashed=0;shape=mxgraph.bootstrap.rrect;rSize=5;strokeColor=none;strokeWidth=1;fillColor=#33A64C;fontColor=#FFFFFF;whiteSpace=wrap;align=center;verticalAlign=middle;spacingLeft=0;fontStyle=1;fontSize=14;spacing=5;" vertex="1" parent="JL3x1tFgeX2Gd9nTqzUn-1">
          <mxGeometry x="320" y="650" width="130" height="55" as="geometry" />
        </mxCell>
        <mxCell id="W9_3WLjVGjQPoJplsyBn-0" value="&lt;span style=&quot;font-size: 18px&quot;&gt;ログイン&lt;br&gt;&lt;/span&gt;" style="verticalLabelPosition=middle;verticalAlign=middle;html=1;shape=mxgraph.basic.rect;fillColor2=none;strokeWidth=1;size=20;indent=5;fillColor=#ffffff;align=center;labelPosition=center;" vertex="1" parent="JL3x1tFgeX2Gd9nTqzUn-1">
          <mxGeometry x="1380" y="120" width="120" height="60" as="geometry" />
        </mxCell>
        <mxCell id="R8JreIXj_1Rx6q4TIoty-0" value="&lt;font style=&quot;font-size: 18px&quot;&gt;新規登録&lt;/font&gt;" style="verticalLabelPosition=middle;verticalAlign=middle;html=1;shape=mxgraph.basic.rect;fillColor2=none;strokeWidth=1;size=20;indent=5;fillColor=#ffffff;align=center;labelPosition=center;" vertex="1" parent="JL3x1tFgeX2Gd9nTqzUn-1">
          <mxGeometry x="1240" y="120" width="120" height="60" as="geometry" />
        </mxCell>
        <mxCell id="R8JreIXj_1Rx6q4TIoty-1" value="&lt;font style=&quot;font-size: 18px&quot;&gt;既に登録済みの方はこちら&lt;/font&gt;" style="text;html=1;strokeColor=none;fillColor=none;align=center;verticalAlign=middle;whiteSpace=wrap;rounded=0;" vertex="1" parent="JL3x1tFgeX2Gd9nTqzUn-1">
          <mxGeometry x="300" y="760" width="230" height="30" as="geometry" />
        </mxCell>
        <mxCell id="R8JreIXj_1Rx6q4TIoty-4" value="&lt;font style=&quot;font-size: 24px&quot;&gt;ニックネーム&lt;/font&gt;" style="text;html=1;strokeColor=none;fillColor=none;align=center;verticalAlign=middle;whiteSpace=wrap;rounded=0;" vertex="1" parent="JL3x1tFgeX2Gd9nTqzUn-1">
          <mxGeometry x="320" y="560" width="170" height="20" as="geometry" />
        </mxCell>
        <mxCell id="R8JreIXj_1Rx6q4TIoty-5" value="" style="rounded=0;whiteSpace=wrap;html=1;fillColor=#ffffff;align=center;" vertex="1" parent="JL3x1tFgeX2Gd9nTqzUn-1">
          <mxGeometry x="320" y="585" width="260" height="35" as="geometry" />
        </mxCell>
        <mxCell id="6il6t7XPFA4Lgpk2AG7R-1" value="&lt;font style=&quot;font-size: 36px&quot;&gt;冗談じゃない、今すぐトレーニングだ&lt;/font&gt;" style="rounded=0;whiteSpace=wrap;html=1;sketch=0;" vertex="1" parent="JL3x1tFgeX2Gd9nTqzUn-1">
          <mxGeometry x="750" y="380" width="730" height="310" as="geometry" />
        </mxCell>
        <mxCell id="P8Cn1LUYeJVmI-33aRIe-0" value="今日の格言" style="text;strokeColor=none;fillColor=none;html=1;fontSize=24;fontStyle=1;verticalAlign=middle;align=center;rounded=0;sketch=0;" vertex="1" parent="JL3x1tFgeX2Gd9nTqzUn-1">
          <mxGeometry x="950" y="310" width="300" height="40" as="geometry" />
        </mxCell>
      </root>
    </mxGraphModel>
  </diagram>
  <diagram id="aNUv6X035ZnoPvwEYeFh" name="ログイン画面">
    <mxGraphModel dx="1892" dy="1134" grid="1" gridSize="10" guides="1" tooltips="1" connect="1" arrows="1" fold="1" page="1" pageScale="1" pageWidth="1654" pageHeight="1169" math="0" shadow="0">
      <root>
        <mxCell id="_KaOR5W_jfGAxKg3fsh7-0" />
        <mxCell id="_KaOR5W_jfGAxKg3fsh7-1" parent="_KaOR5W_jfGAxKg3fsh7-0" />
        <mxCell id="On3oM8W6UvDEkwKa5zW2-0" value="" style="rounded=0;whiteSpace=wrap;html=1;fillColor=none;" vertex="1" parent="_KaOR5W_jfGAxKg3fsh7-1">
          <mxGeometry x="150" y="90" width="1380" height="1010" as="geometry" />
        </mxCell>
        <mxCell id="t-OJMPiVocvo1YiUJWil-0" value="" style="line;strokeWidth=1;rotatable=0;dashed=0;labelPosition=right;align=left;verticalAlign=middle;spacingTop=0;spacingLeft=6;points=[];portConstraint=eastwest;fillColor=none;" vertex="1" parent="_KaOR5W_jfGAxKg3fsh7-1">
          <mxGeometry x="148.5" y="1010" width="1380" height="10" as="geometry" />
        </mxCell>
        <mxCell id="lOupYwCfrtbQYq17FJXi-0" value="&lt;font style=&quot;font-size: 18px&quot;&gt;©️ジムトモ&lt;/font&gt;" style="text;html=1;strokeColor=none;fillColor=none;align=center;verticalAlign=middle;whiteSpace=wrap;rounded=0;" vertex="1" parent="_KaOR5W_jfGAxKg3fsh7-1">
          <mxGeometry x="790" y="1050" width="120" height="20" as="geometry" />
        </mxCell>
        <mxCell id="INhRSJff5euebW8fXu3Q-0" value="" style="line;strokeWidth=1;rotatable=0;dashed=0;labelPosition=right;align=left;verticalAlign=middle;spacingTop=0;spacingLeft=6;points=[];portConstraint=eastwest;fillColor=none;" vertex="1" parent="_KaOR5W_jfGAxKg3fsh7-1">
          <mxGeometry x="148.5" y="200" width="1383" height="10" as="geometry" />
        </mxCell>
        <mxCell id="WugjMrq_ry5_9A1hiBQY-0" value="&lt;font style=&quot;font-size: 24px&quot;&gt;LOGO&lt;/font&gt;" style="verticalLabelPosition=middle;verticalAlign=middle;html=1;shape=mxgraph.basic.rect;fillColor2=none;strokeWidth=1;size=20;indent=5;align=center;labelPosition=center;" vertex="1" parent="_KaOR5W_jfGAxKg3fsh7-1">
          <mxGeometry x="170" y="120" width="240" height="60" as="geometry" />
        </mxCell>
        <mxCell id="E8ErsXR6-DTPOrTTwPF1-0" value="&lt;font style=&quot;font-size: 18px&quot;&gt;TOP&lt;/font&gt;" style="verticalLabelPosition=middle;verticalAlign=middle;html=1;shape=mxgraph.basic.rect;fillColor2=none;strokeWidth=1;size=20;indent=5;fillColor=#ffffff;align=center;labelPosition=center;" vertex="1" parent="_KaOR5W_jfGAxKg3fsh7-1">
          <mxGeometry x="910" y="120" width="140" height="60" as="geometry" />
        </mxCell>
        <mxCell id="ur-TTV7Lr3jbn279aGHz-0" value="&lt;font style=&quot;font-size: 18px&quot;&gt;ABOUT&lt;/font&gt;" style="verticalLabelPosition=middle;verticalAlign=middle;html=1;shape=mxgraph.basic.rect;fillColor2=none;strokeWidth=1;size=20;indent=5;fillColor=#ffffff;align=center;labelPosition=center;" vertex="1" parent="_KaOR5W_jfGAxKg3fsh7-1">
          <mxGeometry x="1090" y="120" width="120" height="60" as="geometry" />
        </mxCell>
        <mxCell id="s8ElHWhFizLbdmEhg1EV-0" value="&lt;font style=&quot;font-size: 18px&quot;&gt;新規登録&lt;/font&gt;" style="verticalLabelPosition=middle;verticalAlign=middle;html=1;shape=mxgraph.basic.rect;fillColor2=none;strokeWidth=1;size=20;indent=5;fillColor=#ffffff;align=center;labelPosition=center;" vertex="1" parent="_KaOR5W_jfGAxKg3fsh7-1">
          <mxGeometry x="1240" y="120" width="120" height="60" as="geometry" />
        </mxCell>
        <mxCell id="_5zgX772holv1TNFLGsU-0" value="&lt;span style=&quot;font-size: 18px&quot;&gt;ログイン&lt;br&gt;&lt;/span&gt;" style="verticalLabelPosition=middle;verticalAlign=middle;html=1;shape=mxgraph.basic.rect;fillColor2=none;strokeWidth=1;size=20;indent=5;fillColor=#ffffff;align=center;labelPosition=center;" vertex="1" parent="_KaOR5W_jfGAxKg3fsh7-1">
          <mxGeometry x="1380" y="120" width="120" height="60" as="geometry" />
        </mxCell>
        <mxCell id="55AQftzPy_J6-L6X0CuG-0" value="&lt;font style=&quot;font-size: 24px&quot;&gt;メールアドレス&lt;/font&gt;" style="text;html=1;strokeColor=none;fillColor=none;align=center;verticalAlign=middle;whiteSpace=wrap;rounded=0;" vertex="1" parent="_KaOR5W_jfGAxKg3fsh7-1">
          <mxGeometry x="290" y="330" width="220" height="20" as="geometry" />
        </mxCell>
        <mxCell id="mqKD3Hdgb23rDRv2-NZr-0" value="" style="rounded=0;whiteSpace=wrap;html=1;fillColor=#ffffff;align=center;" vertex="1" parent="_KaOR5W_jfGAxKg3fsh7-1">
          <mxGeometry x="320" y="370" width="260" height="40" as="geometry" />
        </mxCell>
        <mxCell id="1ebbdMHIKDn8LiAtkCvv-0" value="&lt;font style=&quot;font-size: 24px&quot;&gt;パスワード&lt;/font&gt;" style="text;html=1;strokeColor=none;fillColor=none;align=center;verticalAlign=middle;whiteSpace=wrap;rounded=0;" vertex="1" parent="_KaOR5W_jfGAxKg3fsh7-1">
          <mxGeometry x="300" y="450" width="170" height="20" as="geometry" />
        </mxCell>
        <mxCell id="HEk4Pw7Mh-6eCKyOpSel-0" value="" style="rounded=0;whiteSpace=wrap;html=1;fillColor=#ffffff;align=center;" vertex="1" parent="_KaOR5W_jfGAxKg3fsh7-1">
          <mxGeometry x="320" y="490" width="260" height="40" as="geometry" />
        </mxCell>
        <mxCell id="z860aM4j_zEduKfFykd7-0" value="&lt;span style=&quot;font-size: 24px&quot;&gt;ログイン&lt;/span&gt;" style="html=1;shadow=0;dashed=0;shape=mxgraph.bootstrap.rrect;rSize=5;strokeColor=none;strokeWidth=1;fillColor=#33A64C;fontColor=#FFFFFF;whiteSpace=wrap;align=center;verticalAlign=middle;spacingLeft=0;fontStyle=1;fontSize=14;spacing=5;" vertex="1" parent="_KaOR5W_jfGAxKg3fsh7-1">
          <mxGeometry x="320" y="600" width="130" height="55" as="geometry" />
        </mxCell>
        <mxCell id="m6WLy12_DhlvIUj_JKjJ-0" value="&lt;span style=&quot;font-size: 36px&quot;&gt;ログイン&lt;/span&gt;" style="text;strokeColor=none;fillColor=none;html=1;fontSize=24;fontStyle=1;verticalAlign=middle;align=center;" vertex="1" parent="_KaOR5W_jfGAxKg3fsh7-1">
          <mxGeometry x="240" y="260" width="260" height="40" as="geometry" />
        </mxCell>
        <mxCell id="wU8EVm7kGWYphGpLYM0g-0" value="&lt;span style=&quot;font-size: 36px&quot;&gt;筋肉がNOといっても、私はYESと言う&lt;/span&gt;" style="rounded=0;whiteSpace=wrap;html=1;sketch=0;" vertex="1" parent="_KaOR5W_jfGAxKg3fsh7-1">
          <mxGeometry x="730" y="370" width="730" height="310" as="geometry" />
        </mxCell>
        <mxCell id="x4KCDy0DKXtBn7Ve783Z-1" value="今日の格言" style="text;strokeColor=none;fillColor=none;html=1;fontSize=24;fontStyle=1;verticalAlign=middle;align=center;rounded=0;sketch=0;" vertex="1" parent="_KaOR5W_jfGAxKg3fsh7-1">
          <mxGeometry x="940" y="300" width="300" height="40" as="geometry" />
        </mxCell>
      </root>
    </mxGraphModel>
  </diagram>
  <diagram id="uX-ZkvwKchYeVfN4PSU1" name="ジム一覧">
    <mxGraphModel dx="1892" dy="1134" grid="1" gridSize="10" guides="1" tooltips="1" connect="1" arrows="1" fold="1" page="1" pageScale="1" pageWidth="1654" pageHeight="1169" math="0" shadow="0">
      <root>
        <mxCell id="Ve-hvTTOscn3P7Vd1k1l-0" />
        <mxCell id="Ve-hvTTOscn3P7Vd1k1l-1" parent="Ve-hvTTOscn3P7Vd1k1l-0" />
        <mxCell id="-mKZo70hPpAJeOryiLV0-0" value="" style="rounded=0;whiteSpace=wrap;html=1;fillColor=none;" vertex="1" parent="Ve-hvTTOscn3P7Vd1k1l-1">
          <mxGeometry x="148.5" y="80" width="1380" height="1010" as="geometry" />
        </mxCell>
        <mxCell id="BZ1EuPvrE3zy3L14cRed-0" value="" style="line;strokeWidth=1;rotatable=0;dashed=0;labelPosition=right;align=left;verticalAlign=middle;spacingTop=0;spacingLeft=6;points=[];portConstraint=eastwest;fillColor=none;" vertex="1" parent="Ve-hvTTOscn3P7Vd1k1l-1">
          <mxGeometry x="148.5" y="1010" width="1380" height="10" as="geometry" />
        </mxCell>
        <mxCell id="X8pIVOpYdLKqkHIJYSQZ-0" value="&lt;font style=&quot;font-size: 18px&quot;&gt;©️ジムトモ&lt;/font&gt;" style="text;html=1;strokeColor=none;fillColor=none;align=center;verticalAlign=middle;whiteSpace=wrap;rounded=0;" vertex="1" parent="Ve-hvTTOscn3P7Vd1k1l-1">
          <mxGeometry x="790" y="1050" width="120" height="20" as="geometry" />
        </mxCell>
        <mxCell id="vMVwRcGm_uRvsZPkVxcx-0" value="" style="line;strokeWidth=1;rotatable=0;dashed=0;labelPosition=right;align=left;verticalAlign=middle;spacingTop=0;spacingLeft=6;points=[];portConstraint=eastwest;fillColor=none;" vertex="1" parent="Ve-hvTTOscn3P7Vd1k1l-1">
          <mxGeometry x="150" y="190" width="1380" height="10" as="geometry" />
        </mxCell>
        <mxCell id="SAtadayet61RX-69NEPf-0" value="&lt;font style=&quot;font-size: 24px&quot;&gt;LOGO&lt;/font&gt;" style="verticalLabelPosition=middle;verticalAlign=middle;html=1;shape=mxgraph.basic.rect;fillColor2=none;strokeWidth=1;size=20;indent=5;align=center;labelPosition=center;" vertex="1" parent="Ve-hvTTOscn3P7Vd1k1l-1">
          <mxGeometry x="190" y="110" width="240" height="60" as="geometry" />
        </mxCell>
        <mxCell id="M9plIyAOKumHT0T8U0WL-0" value="&lt;span style=&quot;font-size: 18px&quot;&gt;ログアウト&lt;br&gt;&lt;/span&gt;" style="verticalLabelPosition=middle;verticalAlign=middle;html=1;shape=mxgraph.basic.rect;fillColor2=none;strokeWidth=1;size=20;indent=5;align=center;labelPosition=center;" vertex="1" parent="Ve-hvTTOscn3P7Vd1k1l-1">
          <mxGeometry x="1370" y="110" width="120" height="60" as="geometry" />
        </mxCell>
        <mxCell id="M9plIyAOKumHT0T8U0WL-1" value="&lt;span style=&quot;font-size: 18px&quot;&gt;マイページ&lt;/span&gt;" style="verticalLabelPosition=middle;verticalAlign=middle;html=1;shape=mxgraph.basic.rect;fillColor2=none;strokeWidth=1;size=20;indent=5;align=center;labelPosition=center;" vertex="1" parent="Ve-hvTTOscn3P7Vd1k1l-1">
          <mxGeometry x="1220" y="110" width="120" height="60" as="geometry" />
        </mxCell>
        <mxCell id="M9plIyAOKumHT0T8U0WL-3" value="&lt;font style=&quot;font-size: 36px&quot;&gt;ジム一覧&lt;/font&gt;" style="text;strokeColor=none;fillColor=none;html=1;fontSize=24;fontStyle=1;verticalAlign=middle;align=center;" vertex="1" parent="Ve-hvTTOscn3P7Vd1k1l-1">
          <mxGeometry x="180" y="245" width="280" height="40" as="geometry" />
        </mxCell>
        <mxCell id="M9plIyAOKumHT0T8U0WL-5" value="" style="whiteSpace=wrap;html=1;aspect=fixed;align=center;" vertex="1" parent="Ve-hvTTOscn3P7Vd1k1l-1">
          <mxGeometry x="270" y="320" width="190" height="190" as="geometry" />
        </mxCell>
        <mxCell id="M9plIyAOKumHT0T8U0WL-6" value="" style="whiteSpace=wrap;html=1;aspect=fixed;align=center;" vertex="1" parent="Ve-hvTTOscn3P7Vd1k1l-1">
          <mxGeometry x="540" y="320" width="190" height="190" as="geometry" />
        </mxCell>
        <mxCell id="M9plIyAOKumHT0T8U0WL-7" value="" style="whiteSpace=wrap;html=1;aspect=fixed;align=center;" vertex="1" parent="Ve-hvTTOscn3P7Vd1k1l-1">
          <mxGeometry x="827" y="320" width="190" height="190" as="geometry" />
        </mxCell>
        <mxCell id="M9plIyAOKumHT0T8U0WL-8" value="" style="whiteSpace=wrap;html=1;aspect=fixed;align=center;" vertex="1" parent="Ve-hvTTOscn3P7Vd1k1l-1">
          <mxGeometry x="280" y="630" width="190" height="190" as="geometry" />
        </mxCell>
        <mxCell id="M9plIyAOKumHT0T8U0WL-9" value="" style="whiteSpace=wrap;html=1;aspect=fixed;align=center;" vertex="1" parent="Ve-hvTTOscn3P7Vd1k1l-1">
          <mxGeometry x="550" y="630" width="190" height="190" as="geometry" />
        </mxCell>
        <mxCell id="M9plIyAOKumHT0T8U0WL-10" value="" style="whiteSpace=wrap;html=1;aspect=fixed;align=center;" vertex="1" parent="Ve-hvTTOscn3P7Vd1k1l-1">
          <mxGeometry x="830" y="630" width="190" height="190" as="geometry" />
        </mxCell>
        <mxCell id="M9plIyAOKumHT0T8U0WL-12" value="&lt;font style=&quot;font-size: 36px&quot;&gt;検索&lt;/font&gt;" style="rounded=0;whiteSpace=wrap;html=1;align=center;fillColor=none;" vertex="1" parent="Ve-hvTTOscn3P7Vd1k1l-1">
          <mxGeometry x="1015" y="245" width="270" height="50" as="geometry" />
        </mxCell>
        <mxCell id="M9plIyAOKumHT0T8U0WL-13" value="&lt;font style=&quot;font-size: 24px&quot;&gt;ジム説明&lt;/font&gt;" style="text;html=1;strokeColor=none;fillColor=none;align=center;verticalAlign=middle;whiteSpace=wrap;rounded=0;" vertex="1" parent="Ve-hvTTOscn3P7Vd1k1l-1">
          <mxGeometry x="285" y="545" width="160" height="40" as="geometry" />
        </mxCell>
        <mxCell id="M9plIyAOKumHT0T8U0WL-14" value="&lt;font style=&quot;font-size: 24px&quot;&gt;ジム説明&lt;/font&gt;" style="text;html=1;strokeColor=none;fillColor=none;align=center;verticalAlign=middle;whiteSpace=wrap;rounded=0;" vertex="1" parent="Ve-hvTTOscn3P7Vd1k1l-1">
          <mxGeometry x="570" y="545" width="160" height="40" as="geometry" />
        </mxCell>
        <mxCell id="M9plIyAOKumHT0T8U0WL-15" value="&lt;font style=&quot;font-size: 24px&quot;&gt;ジム説明&lt;/font&gt;" style="text;html=1;strokeColor=none;fillColor=none;align=center;verticalAlign=middle;whiteSpace=wrap;rounded=0;" vertex="1" parent="Ve-hvTTOscn3P7Vd1k1l-1">
          <mxGeometry x="840" y="545" width="160" height="40" as="geometry" />
        </mxCell>
        <mxCell id="M9plIyAOKumHT0T8U0WL-16" value="&lt;font style=&quot;font-size: 24px&quot;&gt;ジム説明&lt;/font&gt;" style="text;html=1;strokeColor=none;fillColor=none;align=center;verticalAlign=middle;whiteSpace=wrap;rounded=0;" vertex="1" parent="Ve-hvTTOscn3P7Vd1k1l-1">
          <mxGeometry x="295" y="850" width="160" height="40" as="geometry" />
        </mxCell>
        <mxCell id="M9plIyAOKumHT0T8U0WL-17" value="&lt;font style=&quot;font-size: 24px&quot;&gt;ジム説明&lt;/font&gt;" style="text;html=1;strokeColor=none;fillColor=none;align=center;verticalAlign=middle;whiteSpace=wrap;rounded=0;" vertex="1" parent="Ve-hvTTOscn3P7Vd1k1l-1">
          <mxGeometry x="570" y="850" width="160" height="40" as="geometry" />
        </mxCell>
        <mxCell id="M9plIyAOKumHT0T8U0WL-18" value="&lt;font style=&quot;font-size: 24px&quot;&gt;ジム説明&lt;/font&gt;" style="text;html=1;strokeColor=none;fillColor=none;align=center;verticalAlign=middle;whiteSpace=wrap;rounded=0;" vertex="1" parent="Ve-hvTTOscn3P7Vd1k1l-1">
          <mxGeometry x="857" y="850" width="160" height="40" as="geometry" />
        </mxCell>
        <mxCell id="rW-hbCFJzmvnB4KcNEU5-2" style="edgeStyle=orthogonalEdgeStyle;curved=0;rounded=1;sketch=0;orthogonalLoop=1;jettySize=auto;html=1;exitX=0.75;exitY=1;exitDx=0;exitDy=0;entryX=0.754;entryY=0.625;entryDx=0;entryDy=0;entryPerimeter=0;" edge="1" parent="Ve-hvTTOscn3P7Vd1k1l-1">
          <mxGeometry relative="1" as="geometry">
            <mxPoint x="395" y="285" as="sourcePoint" />
            <mxPoint x="396.03999999999996" y="270" as="targetPoint" />
          </mxGeometry>
        </mxCell>
        <mxCell id="rW-hbCFJzmvnB4KcNEU5-3" value="&lt;span style=&quot;font-size: 18px&quot;&gt;ジム作成&lt;/span&gt;" style="verticalLabelPosition=middle;verticalAlign=middle;html=1;shape=mxgraph.basic.rect;fillColor2=none;strokeWidth=1;size=20;indent=5;align=center;labelPosition=center;" vertex="1" parent="Ve-hvTTOscn3P7Vd1k1l-1">
          <mxGeometry x="1050" y="110" width="120" height="60" as="geometry" />
        </mxCell>
        <mxCell id="rW-hbCFJzmvnB4KcNEU5-5" value="" style="whiteSpace=wrap;html=1;aspect=fixed;align=center;" vertex="1" parent="Ve-hvTTOscn3P7Vd1k1l-1">
          <mxGeometry x="1110" y="320" width="190" height="190" as="geometry" />
        </mxCell>
        <mxCell id="rW-hbCFJzmvnB4KcNEU5-6" value="" style="whiteSpace=wrap;html=1;aspect=fixed;align=center;" vertex="1" parent="Ve-hvTTOscn3P7Vd1k1l-1">
          <mxGeometry x="1110" y="630" width="190" height="190" as="geometry" />
        </mxCell>
        <mxCell id="rW-hbCFJzmvnB4KcNEU5-7" value="&lt;font style=&quot;font-size: 24px&quot;&gt;ジム説明&lt;/font&gt;" style="text;html=1;strokeColor=none;fillColor=none;align=center;verticalAlign=middle;whiteSpace=wrap;rounded=0;" vertex="1" parent="Ve-hvTTOscn3P7Vd1k1l-1">
          <mxGeometry x="1125" y="545" width="160" height="40" as="geometry" />
        </mxCell>
        <mxCell id="rW-hbCFJzmvnB4KcNEU5-8" value="&lt;font style=&quot;font-size: 24px&quot;&gt;ジム説明&lt;/font&gt;" style="text;html=1;strokeColor=none;fillColor=none;align=center;verticalAlign=middle;whiteSpace=wrap;rounded=0;" vertex="1" parent="Ve-hvTTOscn3P7Vd1k1l-1">
          <mxGeometry x="1125" y="850" width="160" height="40" as="geometry" />
        </mxCell>
      </root>
    </mxGraphModel>
  </diagram>
  <diagram id="eFCf1Flm-d_z0XCg56ge" name="ジム作成">
    <mxGraphModel dx="1892" dy="1134" grid="1" gridSize="10" guides="1" tooltips="1" connect="1" arrows="1" fold="1" page="1" pageScale="1" pageWidth="1654" pageHeight="1169" math="0" shadow="0">
      <root>
        <mxCell id="bN9DRR7ygXLC4ETw0tTN-0" />
        <mxCell id="bN9DRR7ygXLC4ETw0tTN-1" parent="bN9DRR7ygXLC4ETw0tTN-0" />
        <mxCell id="d1fW3PGILB4OQkGAq-eu-0" value="" style="rounded=0;whiteSpace=wrap;html=1;fillColor=none;" vertex="1" parent="bN9DRR7ygXLC4ETw0tTN-1">
          <mxGeometry x="148.5" y="80" width="1380" height="1010" as="geometry" />
        </mxCell>
        <mxCell id="w__4c1YbGcrhswMUwZKD-0" value="" style="line;strokeWidth=1;rotatable=0;dashed=0;labelPosition=right;align=left;verticalAlign=middle;spacingTop=0;spacingLeft=6;points=[];portConstraint=eastwest;fillColor=none;" vertex="1" parent="bN9DRR7ygXLC4ETw0tTN-1">
          <mxGeometry x="148.5" y="1010" width="1380" height="10" as="geometry" />
        </mxCell>
        <mxCell id="AcBoxgYSzkD6sC6DAIrO-0" value="&lt;font style=&quot;font-size: 18px&quot;&gt;©️ジムトモ&lt;/font&gt;" style="text;html=1;strokeColor=none;fillColor=none;align=center;verticalAlign=middle;whiteSpace=wrap;rounded=0;" vertex="1" parent="bN9DRR7ygXLC4ETw0tTN-1">
          <mxGeometry x="790" y="1050" width="120" height="20" as="geometry" />
        </mxCell>
        <mxCell id="ISU32mE5CqBf5X9WC9W4-0" value="" style="line;strokeWidth=1;rotatable=0;dashed=0;labelPosition=right;align=left;verticalAlign=middle;spacingTop=0;spacingLeft=6;points=[];portConstraint=eastwest;fillColor=none;" vertex="1" parent="bN9DRR7ygXLC4ETw0tTN-1">
          <mxGeometry x="148.5" y="200" width="1383" height="10" as="geometry" />
        </mxCell>
        <mxCell id="yTEdMDAwZRnDQl2eKgpD-0" value="&lt;font style=&quot;font-size: 24px&quot;&gt;LOGO&lt;/font&gt;" style="verticalLabelPosition=middle;verticalAlign=middle;html=1;shape=mxgraph.basic.rect;fillColor2=none;strokeWidth=1;size=20;indent=5;align=center;labelPosition=center;" vertex="1" parent="bN9DRR7ygXLC4ETw0tTN-1">
          <mxGeometry x="170" y="120" width="240" height="60" as="geometry" />
        </mxCell>
        <mxCell id="2IJbGUA08X1sOZMFz8JQ-0" value="&lt;span style=&quot;font-size: 18px&quot;&gt;ジム作成&lt;/span&gt;" style="verticalLabelPosition=middle;verticalAlign=middle;html=1;shape=mxgraph.basic.rect;fillColor2=none;strokeWidth=1;size=20;indent=5;align=center;labelPosition=center;" vertex="1" parent="bN9DRR7ygXLC4ETw0tTN-1">
          <mxGeometry x="1050" y="110" width="120" height="60" as="geometry" />
        </mxCell>
        <mxCell id="A0mrRrXcMkVZ0mEYUj6N-0" value="&lt;span style=&quot;font-size: 18px&quot;&gt;マイページ&lt;/span&gt;" style="verticalLabelPosition=middle;verticalAlign=middle;html=1;shape=mxgraph.basic.rect;fillColor2=none;strokeWidth=1;size=20;indent=5;align=center;labelPosition=center;" vertex="1" parent="bN9DRR7ygXLC4ETw0tTN-1">
          <mxGeometry x="1220" y="110" width="120" height="60" as="geometry" />
        </mxCell>
        <mxCell id="8PC8bPH2jUh1j7O7aFru-0" value="&lt;span style=&quot;font-size: 18px&quot;&gt;ログアウト&lt;br&gt;&lt;/span&gt;" style="verticalLabelPosition=middle;verticalAlign=middle;html=1;shape=mxgraph.basic.rect;fillColor2=none;strokeWidth=1;size=20;indent=5;align=center;labelPosition=center;" vertex="1" parent="bN9DRR7ygXLC4ETw0tTN-1">
          <mxGeometry x="1370" y="110" width="120" height="60" as="geometry" />
        </mxCell>
        <mxCell id="StGwcL1wKHB89FipchW9-0" value="&lt;font style=&quot;font-size: 36px&quot;&gt;ジム新規作成&lt;/font&gt;" style="text;strokeColor=none;fillColor=none;html=1;fontSize=24;fontStyle=1;verticalAlign=middle;align=center;rounded=0;sketch=0;" vertex="1" parent="bN9DRR7ygXLC4ETw0tTN-1">
          <mxGeometry x="637" y="260" width="380" height="40" as="geometry" />
        </mxCell>
        <mxCell id="C6jjZ9qPcaD_7FiLj0p6-0" value="&lt;font style=&quot;font-size: 24px&quot;&gt;ファイルを選択&lt;/font&gt;" style="rounded=0;whiteSpace=wrap;html=1;sketch=0;" vertex="1" parent="bN9DRR7ygXLC4ETw0tTN-1">
          <mxGeometry x="712" y="400" width="230" height="60" as="geometry" />
        </mxCell>
        <mxCell id="C6jjZ9qPcaD_7FiLj0p6-1" value="&lt;font style=&quot;font-size: 24px&quot;&gt;ジム名&lt;/font&gt;" style="text;html=1;strokeColor=none;fillColor=none;align=center;verticalAlign=middle;whiteSpace=wrap;rounded=0;sketch=0;" vertex="1" parent="bN9DRR7ygXLC4ETw0tTN-1">
          <mxGeometry x="732" y="520" width="190" height="20" as="geometry" />
        </mxCell>
        <mxCell id="C6jjZ9qPcaD_7FiLj0p6-2" value="" style="rounded=0;whiteSpace=wrap;html=1;sketch=0;" vertex="1" parent="bN9DRR7ygXLC4ETw0tTN-1">
          <mxGeometry x="683.5" y="560" width="310" height="30" as="geometry" />
        </mxCell>
        <mxCell id="C6jjZ9qPcaD_7FiLj0p6-3" value="&lt;font style=&quot;font-size: 24px&quot;&gt;説明文&lt;/font&gt;" style="text;html=1;strokeColor=none;fillColor=none;align=center;verticalAlign=middle;whiteSpace=wrap;rounded=0;sketch=0;" vertex="1" parent="bN9DRR7ygXLC4ETw0tTN-1">
          <mxGeometry x="767" y="660" width="120" height="20" as="geometry" />
        </mxCell>
        <mxCell id="C6jjZ9qPcaD_7FiLj0p6-4" value="" style="rounded=0;whiteSpace=wrap;html=1;sketch=0;" vertex="1" parent="bN9DRR7ygXLC4ETw0tTN-1">
          <mxGeometry x="640" y="710" width="400" height="130" as="geometry" />
        </mxCell>
        <mxCell id="C6jjZ9qPcaD_7FiLj0p6-5" value="&lt;font style=&quot;font-size: 24px&quot;&gt;登録&lt;/font&gt;" style="html=1;shadow=0;dashed=0;shape=mxgraph.bootstrap.rrect;rSize=5;strokeColor=none;strokeWidth=1;fillColor=#33A64C;fontColor=#FFFFFF;whiteSpace=wrap;align=center;verticalAlign=middle;spacingLeft=0;fontStyle=0;fontSize=16;spacing=5;rounded=0;sketch=0;" vertex="1" parent="bN9DRR7ygXLC4ETw0tTN-1">
          <mxGeometry x="768.5" y="890" width="140" height="60" as="geometry" />
        </mxCell>
      </root>
    </mxGraphModel>
  </diagram>
  <diagram id="YKqgMy4wLX_MkJVojiup" name="ジム詳細">
    <mxGraphModel dx="1892" dy="1134" grid="1" gridSize="10" guides="1" tooltips="1" connect="1" arrows="1" fold="1" page="1" pageScale="1" pageWidth="1654" pageHeight="1169" math="0" shadow="0">
      <root>
        <mxCell id="S9Ml38-aAOQ-74PfCMLu-0" />
        <mxCell id="S9Ml38-aAOQ-74PfCMLu-1" parent="S9Ml38-aAOQ-74PfCMLu-0" />
        <mxCell id="TQdcmGDlKj9SF2GrYlM3-0" value="" style="rounded=0;whiteSpace=wrap;html=1;fillColor=none;" vertex="1" parent="S9Ml38-aAOQ-74PfCMLu-1">
          <mxGeometry x="148.5" y="80" width="1380" height="1010" as="geometry" />
        </mxCell>
        <mxCell id="mQcuJ6f47HI8P33WO3Fw-0" value="" style="line;strokeWidth=1;rotatable=0;dashed=0;labelPosition=right;align=left;verticalAlign=middle;spacingTop=0;spacingLeft=6;points=[];portConstraint=eastwest;fillColor=none;" vertex="1" parent="S9Ml38-aAOQ-74PfCMLu-1">
          <mxGeometry x="148.5" y="1010" width="1380" height="10" as="geometry" />
        </mxCell>
        <mxCell id="BpJ4j5P7rTSv0nKxRZLw-0" value="&lt;font style=&quot;font-size: 18px&quot;&gt;©️ジムトモ&lt;/font&gt;" style="text;html=1;strokeColor=none;fillColor=none;align=center;verticalAlign=middle;whiteSpace=wrap;rounded=0;" vertex="1" parent="S9Ml38-aAOQ-74PfCMLu-1">
          <mxGeometry x="790" y="1050" width="120" height="20" as="geometry" />
        </mxCell>
        <mxCell id="gvilhbq6woxoL3Q1Y-hf-0" value="" style="line;strokeWidth=1;rotatable=0;dashed=0;labelPosition=right;align=left;verticalAlign=middle;spacingTop=0;spacingLeft=6;points=[];portConstraint=eastwest;fillColor=none;" vertex="1" parent="S9Ml38-aAOQ-74PfCMLu-1">
          <mxGeometry x="148.5" y="200" width="1383" height="10" as="geometry" />
        </mxCell>
        <mxCell id="mDJFHgyMcnmnZS0B_tM6-0" value="&lt;font style=&quot;font-size: 24px&quot;&gt;LOGO&lt;/font&gt;" style="verticalLabelPosition=middle;verticalAlign=middle;html=1;shape=mxgraph.basic.rect;fillColor2=none;strokeWidth=1;size=20;indent=5;align=center;labelPosition=center;" vertex="1" parent="S9Ml38-aAOQ-74PfCMLu-1">
          <mxGeometry x="170" y="120" width="240" height="60" as="geometry" />
        </mxCell>
        <mxCell id="TugOOGd6wdRTY4gLcFYF-0" value="&lt;span style=&quot;font-size: 18px&quot;&gt;ジム作成&lt;/span&gt;" style="verticalLabelPosition=middle;verticalAlign=middle;html=1;shape=mxgraph.basic.rect;fillColor2=none;strokeWidth=1;size=20;indent=5;align=center;labelPosition=center;" vertex="1" parent="S9Ml38-aAOQ-74PfCMLu-1">
          <mxGeometry x="1050" y="110" width="120" height="60" as="geometry" />
        </mxCell>
        <mxCell id="BFuzZwFOclOYGiKRTERr-0" value="&lt;span style=&quot;font-size: 18px&quot;&gt;マイページ&lt;/span&gt;" style="verticalLabelPosition=middle;verticalAlign=middle;html=1;shape=mxgraph.basic.rect;fillColor2=none;strokeWidth=1;size=20;indent=5;align=center;labelPosition=center;" vertex="1" parent="S9Ml38-aAOQ-74PfCMLu-1">
          <mxGeometry x="1220" y="110" width="120" height="60" as="geometry" />
        </mxCell>
        <mxCell id="dle5oxdhwTVdhl8zWKqW-0" value="&lt;span style=&quot;font-size: 18px&quot;&gt;ログアウト&lt;br&gt;&lt;/span&gt;" style="verticalLabelPosition=middle;verticalAlign=middle;html=1;shape=mxgraph.basic.rect;fillColor2=none;strokeWidth=1;size=20;indent=5;align=center;labelPosition=center;" vertex="1" parent="S9Ml38-aAOQ-74PfCMLu-1">
          <mxGeometry x="1370" y="110" width="120" height="60" as="geometry" />
        </mxCell>
        <mxCell id="7hVsUEET5thuS5Xdefia-0" value="&lt;font style=&quot;font-size: 48px&quot;&gt;画像&lt;/font&gt;" style="verticalLabelPosition=middle;verticalAlign=middle;html=1;shape=mxgraph.basic.rect;fillColor2=none;strokeWidth=1;size=20;indent=5;rounded=0;sketch=0;labelPosition=center;align=center;" vertex="1" parent="S9Ml38-aAOQ-74PfCMLu-1">
          <mxGeometry x="510" y="310" width="590" height="450" as="geometry" />
        </mxCell>
        <mxCell id="7hVsUEET5thuS5Xdefia-1" value="&lt;font style=&quot;font-size: 36px&quot;&gt;ジム名&lt;/font&gt;" style="text;strokeColor=none;fillColor=none;html=1;fontSize=24;fontStyle=1;verticalAlign=middle;align=center;rounded=0;sketch=0;" vertex="1" parent="S9Ml38-aAOQ-74PfCMLu-1">
          <mxGeometry x="670" y="250" width="250" height="40" as="geometry" />
        </mxCell>
        <mxCell id="7hVsUEET5thuS5Xdefia-2" value="&lt;font style=&quot;font-size: 36px&quot;&gt;ジム説明文&lt;/font&gt;" style="rounded=0;whiteSpace=wrap;html=1;sketch=0;fillColor=none;" vertex="1" parent="S9Ml38-aAOQ-74PfCMLu-1">
          <mxGeometry x="510" y="790" width="590" height="70" as="geometry" />
        </mxCell>
        <mxCell id="7hVsUEET5thuS5Xdefia-3" value="&lt;font style=&quot;font-size: 24px&quot;&gt;参加&lt;/font&gt;&lt;font style=&quot;font-size: 24px&quot;&gt;する&lt;/font&gt;" style="rounded=1;whiteSpace=wrap;html=1;arcSize=50;strokeColor=none;strokeWidth=1;fillColor=#33A64C;fontColor=#FFFFFF;whiteSpace=wrap;align=center;verticalAlign=middle;spacingLeft=0;fontStyle=1;fontSize=14;spacing=10;sketch=0;" vertex="1" parent="S9Ml38-aAOQ-74PfCMLu-1">
          <mxGeometry x="720" y="900" width="170" height="80" as="geometry" />
        </mxCell>
      </root>
    </mxGraphModel>
  </diagram>
  <diagram id="Au3m5pJ2xumtzIDFWD9T" name="チャットルーム">
    <mxGraphModel dx="2365" dy="1418" grid="1" gridSize="10" guides="1" tooltips="1" connect="1" arrows="1" fold="1" page="1" pageScale="1" pageWidth="1654" pageHeight="1169" math="0" shadow="0">
      <root>
        <mxCell id="2zK_vwSWU1vNC4jKYJna-0" />
        <mxCell id="2zK_vwSWU1vNC4jKYJna-1" parent="2zK_vwSWU1vNC4jKYJna-0" />
        <mxCell id="a8pYS035cntTw-oY0Ol5-0" value="" style="rounded=0;whiteSpace=wrap;html=1;fillColor=none;" vertex="1" parent="2zK_vwSWU1vNC4jKYJna-1">
          <mxGeometry x="148.5" y="80" width="1380" height="1010" as="geometry" />
        </mxCell>
        <mxCell id="dOWPpLbWomU9e5Csunnv-0" value="" style="line;strokeWidth=1;rotatable=0;dashed=0;labelPosition=right;align=left;verticalAlign=middle;spacingTop=0;spacingLeft=6;points=[];portConstraint=eastwest;fillColor=none;" vertex="1" parent="2zK_vwSWU1vNC4jKYJna-1">
          <mxGeometry x="148.5" y="1010" width="1380" height="10" as="geometry" />
        </mxCell>
        <mxCell id="jEAQxzLrgNexaFLG_QdB-0" value="&lt;font style=&quot;font-size: 18px&quot;&gt;©️ジムトモ&lt;/font&gt;" style="text;html=1;strokeColor=none;fillColor=none;align=center;verticalAlign=middle;whiteSpace=wrap;rounded=0;" vertex="1" parent="2zK_vwSWU1vNC4jKYJna-1">
          <mxGeometry x="790" y="1050" width="120" height="20" as="geometry" />
        </mxCell>
        <mxCell id="yYwj8f5jm00MK6WIoEHB-0" value="" style="line;strokeWidth=1;rotatable=0;dashed=0;labelPosition=right;align=left;verticalAlign=middle;spacingTop=0;spacingLeft=6;points=[];portConstraint=eastwest;fillColor=none;" vertex="1" parent="2zK_vwSWU1vNC4jKYJna-1">
          <mxGeometry x="148.5" y="200" width="1383" height="10" as="geometry" />
        </mxCell>
        <mxCell id="tRoxgWYuyAfatYHhuEzJ-0" value="&lt;font style=&quot;font-size: 24px&quot;&gt;LOGO&lt;/font&gt;" style="verticalLabelPosition=middle;verticalAlign=middle;html=1;shape=mxgraph.basic.rect;fillColor2=none;strokeWidth=1;size=20;indent=5;align=center;labelPosition=center;" vertex="1" parent="2zK_vwSWU1vNC4jKYJna-1">
          <mxGeometry x="170" y="120" width="240" height="60" as="geometry" />
        </mxCell>
        <mxCell id="IQ1EtTOcx-Ym4Gl1DF2F-0" value="&lt;span style=&quot;font-size: 18px&quot;&gt;ジム作成&lt;/span&gt;" style="verticalLabelPosition=middle;verticalAlign=middle;html=1;shape=mxgraph.basic.rect;fillColor2=none;strokeWidth=1;size=20;indent=5;align=center;labelPosition=center;" vertex="1" parent="2zK_vwSWU1vNC4jKYJna-1">
          <mxGeometry x="1050" y="110" width="120" height="60" as="geometry" />
        </mxCell>
        <mxCell id="6wMla99a-7x1WhEklxqZ-0" value="&lt;span style=&quot;font-size: 18px&quot;&gt;マイページ&lt;/span&gt;" style="verticalLabelPosition=middle;verticalAlign=middle;html=1;shape=mxgraph.basic.rect;fillColor2=none;strokeWidth=1;size=20;indent=5;align=center;labelPosition=center;" vertex="1" parent="2zK_vwSWU1vNC4jKYJna-1">
          <mxGeometry x="1220" y="110" width="120" height="60" as="geometry" />
        </mxCell>
        <mxCell id="lQUtrttsh5UyW_UTb7Hc-0" value="&lt;span style=&quot;font-size: 18px&quot;&gt;ログアウト&lt;br&gt;&lt;/span&gt;" style="verticalLabelPosition=middle;verticalAlign=middle;html=1;shape=mxgraph.basic.rect;fillColor2=none;strokeWidth=1;size=20;indent=5;align=center;labelPosition=center;" vertex="1" parent="2zK_vwSWU1vNC4jKYJna-1">
          <mxGeometry x="1370" y="110" width="120" height="60" as="geometry" />
        </mxCell>
        <mxCell id="lQUtrttsh5UyW_UTb7Hc-1" value="&lt;font style=&quot;font-size: 36px&quot;&gt;チャットログ&lt;/font&gt;" style="verticalLabelPosition=middle;verticalAlign=middle;html=1;shape=mxgraph.basic.rect;fillColor2=none;strokeWidth=1;size=20;indent=5;rounded=0;sketch=0;labelPosition=center;align=center;" vertex="1" parent="2zK_vwSWU1vNC4jKYJna-1">
          <mxGeometry x="402" y="375" width="850" height="420" as="geometry" />
        </mxCell>
        <mxCell id="lQUtrttsh5UyW_UTb7Hc-2" value="&lt;font style=&quot;font-size: 36px&quot;&gt;ジム名&lt;/font&gt;" style="text;strokeColor=none;fillColor=none;html=1;fontSize=24;fontStyle=1;verticalAlign=middle;align=center;rounded=0;sketch=0;" vertex="1" parent="2zK_vwSWU1vNC4jKYJna-1">
          <mxGeometry x="410" y="290" width="230" height="40" as="geometry" />
        </mxCell>
        <mxCell id="lQUtrttsh5UyW_UTb7Hc-4" value="&lt;font style=&quot;font-size: 36px&quot;&gt;参加人数&lt;/font&gt;" style="text;html=1;strokeColor=none;fillColor=none;align=center;verticalAlign=middle;whiteSpace=wrap;rounded=0;sketch=0;" vertex="1" parent="2zK_vwSWU1vNC4jKYJna-1">
          <mxGeometry x="1060" y="290" width="150" height="50" as="geometry" />
        </mxCell>
        <mxCell id="lQUtrttsh5UyW_UTb7Hc-5" value="" style="rounded=0;whiteSpace=wrap;html=1;sketch=0;fillColor=#ffffff;" vertex="1" parent="2zK_vwSWU1vNC4jKYJna-1">
          <mxGeometry x="430" y="870" width="498" height="60" as="geometry" />
        </mxCell>
        <mxCell id="lQUtrttsh5UyW_UTb7Hc-6" value="&lt;font style=&quot;font-size: 24px&quot;&gt;コメント&lt;/font&gt;" style="html=1;shadow=0;dashed=0;shape=mxgraph.bootstrap.rrect;rSize=5;strokeColor=none;strokeWidth=1;fillColor=#1CA5B8;fontColor=#FFFFFF;whiteSpace=wrap;align=center;verticalAlign=middle;spacingLeft=0;fontStyle=1;fontSize=14;spacing=5;rounded=0;sketch=0;" vertex="1" parent="2zK_vwSWU1vNC4jKYJna-1">
          <mxGeometry x="980" y="870" width="150" height="55" as="geometry" />
        </mxCell>
      </root>
    </mxGraphModel>
  </diagram>
  <diagram id="zL5eYmgKk5pcOP_QBlM2" name="マイページ/ユーザー詳細">
    <mxGraphModel dx="2365" dy="1418" grid="1" gridSize="10" guides="1" tooltips="1" connect="1" arrows="1" fold="1" page="1" pageScale="1" pageWidth="1654" pageHeight="1169" math="0" shadow="0">
      <root>
        <mxCell id="wCgrrmeHNJS4CBhITIkE-0" />
        <mxCell id="wCgrrmeHNJS4CBhITIkE-1" parent="wCgrrmeHNJS4CBhITIkE-0" />
        <mxCell id="z3-cL7ke-LrcKKJUiehH-0" value="" style="rounded=0;whiteSpace=wrap;html=1;fillColor=none;" vertex="1" parent="wCgrrmeHNJS4CBhITIkE-1">
          <mxGeometry x="148.5" y="80" width="1380" height="1010" as="geometry" />
        </mxCell>
        <mxCell id="ZyuzYw2FKMG92i0zlGjp-0" value="&lt;span style=&quot;font-size: 18px&quot;&gt;ジム作成&lt;/span&gt;" style="verticalLabelPosition=middle;verticalAlign=middle;html=1;shape=mxgraph.basic.rect;fillColor2=none;strokeWidth=1;size=20;indent=5;align=center;labelPosition=center;" vertex="1" parent="wCgrrmeHNJS4CBhITIkE-1">
          <mxGeometry x="1050" y="110" width="120" height="60" as="geometry" />
        </mxCell>
        <mxCell id="jvN5SmhIKtrsZ7lBvBu0-0" value="&lt;span style=&quot;font-size: 18px&quot;&gt;マイページ&lt;/span&gt;" style="verticalLabelPosition=middle;verticalAlign=middle;html=1;shape=mxgraph.basic.rect;fillColor2=none;strokeWidth=1;size=20;indent=5;align=center;labelPosition=center;" vertex="1" parent="wCgrrmeHNJS4CBhITIkE-1">
          <mxGeometry x="1220" y="110" width="120" height="60" as="geometry" />
        </mxCell>
        <mxCell id="H-AYHH_hvGktnu2h_d9t-0" value="&lt;span style=&quot;font-size: 18px&quot;&gt;ログアウト&lt;br&gt;&lt;/span&gt;" style="verticalLabelPosition=middle;verticalAlign=middle;html=1;shape=mxgraph.basic.rect;fillColor2=none;strokeWidth=1;size=20;indent=5;align=center;labelPosition=center;" vertex="1" parent="wCgrrmeHNJS4CBhITIkE-1">
          <mxGeometry x="1370" y="110" width="120" height="60" as="geometry" />
        </mxCell>
        <mxCell id="h2GswuY5iqhWBgCQMoJT-0" value="&lt;font style=&quot;font-size: 24px&quot;&gt;LOGO&lt;/font&gt;" style="verticalLabelPosition=middle;verticalAlign=middle;html=1;shape=mxgraph.basic.rect;fillColor2=none;strokeWidth=1;size=20;indent=5;align=center;labelPosition=center;" vertex="1" parent="wCgrrmeHNJS4CBhITIkE-1">
          <mxGeometry x="170" y="120" width="240" height="60" as="geometry" />
        </mxCell>
        <mxCell id="3t8NnxP9L2gqcIkX1zmQ-0" value="" style="line;strokeWidth=1;rotatable=0;dashed=0;labelPosition=right;align=left;verticalAlign=middle;spacingTop=0;spacingLeft=6;points=[];portConstraint=eastwest;fillColor=none;" vertex="1" parent="wCgrrmeHNJS4CBhITIkE-1">
          <mxGeometry x="148.5" y="200" width="1383" height="10" as="geometry" />
        </mxCell>
        <mxCell id="iEJNvRc-V8XGhx_GVf7J-0" value="" style="line;strokeWidth=1;rotatable=0;dashed=0;labelPosition=right;align=left;verticalAlign=middle;spacingTop=0;spacingLeft=6;points=[];portConstraint=eastwest;fillColor=none;" vertex="1" parent="wCgrrmeHNJS4CBhITIkE-1">
          <mxGeometry x="148.5" y="1010" width="1380" height="10" as="geometry" />
        </mxCell>
        <mxCell id="2AcjHioqFZi91ltPIoV8-0" value="&lt;font style=&quot;font-size: 18px&quot;&gt;©️ジムトモ&lt;/font&gt;" style="text;html=1;strokeColor=none;fillColor=none;align=center;verticalAlign=middle;whiteSpace=wrap;rounded=0;" vertex="1" parent="wCgrrmeHNJS4CBhITIkE-1">
          <mxGeometry x="790" y="1050" width="120" height="20" as="geometry" />
        </mxCell>
        <mxCell id="2AcjHioqFZi91ltPIoV8-1" value="" style="verticalLabelPosition=bottom;verticalAlign=top;html=1;shape=mxgraph.basic.rect;fillColor2=none;strokeWidth=1;size=20;indent=5;rounded=0;sketch=0;fillColor=#ffffff;" vertex="1" parent="wCgrrmeHNJS4CBhITIkE-1">
          <mxGeometry x="600" y="320" width="430" height="280" as="geometry" />
        </mxCell>
        <mxCell id="2AcjHioqFZi91ltPIoV8-2" value="プロフィール画像" style="text;strokeColor=none;fillColor=none;html=1;fontSize=24;fontStyle=1;verticalAlign=middle;align=center;rounded=0;sketch=0;" vertex="1" parent="wCgrrmeHNJS4CBhITIkE-1">
          <mxGeometry x="570" y="260" width="270" height="40" as="geometry" />
        </mxCell>
        <mxCell id="2AcjHioqFZi91ltPIoV8-4" value="" style="rounded=0;whiteSpace=wrap;html=1;sketch=0;fillColor=#ffffff;" vertex="1" parent="wCgrrmeHNJS4CBhITIkE-1">
          <mxGeometry x="600" y="660" width="230" height="60" as="geometry" />
        </mxCell>
        <mxCell id="2AcjHioqFZi91ltPIoV8-5" value="&lt;br&gt;ニックネーム" style="text;strokeColor=none;fillColor=none;html=1;fontSize=24;fontStyle=1;verticalAlign=middle;align=center;rounded=0;sketch=0;" vertex="1" parent="wCgrrmeHNJS4CBhITIkE-1">
          <mxGeometry x="597" y="600" width="193" height="40" as="geometry" />
        </mxCell>
        <mxCell id="2AcjHioqFZi91ltPIoV8-6" value="自己紹介文" style="text;strokeColor=none;fillColor=none;html=1;fontSize=24;fontStyle=1;verticalAlign=middle;align=center;rounded=0;sketch=0;" vertex="1" parent="wCgrrmeHNJS4CBhITIkE-1">
          <mxGeometry x="597" y="770" width="143" height="40" as="geometry" />
        </mxCell>
        <mxCell id="2AcjHioqFZi91ltPIoV8-7" value="" style="rounded=0;whiteSpace=wrap;html=1;sketch=0;fillColor=#ffffff;" vertex="1" parent="wCgrrmeHNJS4CBhITIkE-1">
          <mxGeometry x="608.5" y="840" width="381.5" height="60" as="geometry" />
        </mxCell>
        <mxCell id="2AcjHioqFZi91ltPIoV8-8" value="&lt;font style=&quot;font-size: 36px&quot;&gt;更新&lt;/font&gt;" style="html=1;shadow=0;dashed=0;shape=mxgraph.bootstrap.rrect;rSize=5;strokeColor=none;strokeWidth=1;fillColor=#0085FC;fontColor=#FFFFFF;whiteSpace=wrap;align=center;verticalAlign=middle;spacingLeft=0;fontStyle=1;fontSize=14;spacing=5;rounded=0;sketch=0;" vertex="1" parent="wCgrrmeHNJS4CBhITIkE-1">
          <mxGeometry x="830" y="930" width="110" height="60" as="geometry" />
        </mxCell>
        <mxCell id="WlCXszslU3TlwMxGKVp9-0" value="&lt;font style=&quot;font-size: 36px&quot;&gt;フォロー&lt;/font&gt;" style="text;html=1;strokeColor=none;fillColor=none;align=center;verticalAlign=middle;whiteSpace=wrap;rounded=0;sketch=0;" vertex="1" parent="wCgrrmeHNJS4CBhITIkE-1">
          <mxGeometry x="600" y="930" width="200" height="60" as="geometry" />
        </mxCell>
      </root>
    </mxGraphModel>
  </diagram>
  <diagram id="Y1sVudLVQEeaJ9z_4_oP" name="参加者一覧">
    <mxGraphModel dx="2365" dy="1418" grid="1" gridSize="10" guides="1" tooltips="1" connect="1" arrows="1" fold="1" page="1" pageScale="1" pageWidth="1654" pageHeight="1169" math="0" shadow="0">
      <root>
        <mxCell id="K-cMVyKMl1qZpLkuBjMT-0" />
        <mxCell id="K-cMVyKMl1qZpLkuBjMT-1" parent="K-cMVyKMl1qZpLkuBjMT-0" />
        <mxCell id="GVDESE8Mk0lWjP2CRLPt-0" value="" style="rounded=0;whiteSpace=wrap;html=1;fillColor=none;" vertex="1" parent="K-cMVyKMl1qZpLkuBjMT-1">
          <mxGeometry x="148.5" y="80" width="1380" height="1010" as="geometry" />
        </mxCell>
        <mxCell id="6RPNLlsdhcqkl2RJbpWO-0" value="&lt;font style=&quot;font-size: 24px&quot;&gt;LOGO&lt;/font&gt;" style="verticalLabelPosition=middle;verticalAlign=middle;html=1;shape=mxgraph.basic.rect;fillColor2=none;strokeWidth=1;size=20;indent=5;align=center;labelPosition=center;" vertex="1" parent="K-cMVyKMl1qZpLkuBjMT-1">
          <mxGeometry x="190" y="110" width="240" height="60" as="geometry" />
        </mxCell>
        <mxCell id="Duvnaf7jwl9Cyfkk8ip8-0" value="&lt;span style=&quot;font-size: 18px&quot;&gt;ジム作成&lt;/span&gt;" style="verticalLabelPosition=middle;verticalAlign=middle;html=1;shape=mxgraph.basic.rect;fillColor2=none;strokeWidth=1;size=20;indent=5;align=center;labelPosition=center;" vertex="1" parent="K-cMVyKMl1qZpLkuBjMT-1">
          <mxGeometry x="1050" y="110" width="120" height="60" as="geometry" />
        </mxCell>
        <mxCell id="K5Z25tCYyuKtWGjBW5a3-0" value="&lt;span style=&quot;font-size: 18px&quot;&gt;マイページ&lt;/span&gt;" style="verticalLabelPosition=middle;verticalAlign=middle;html=1;shape=mxgraph.basic.rect;fillColor2=none;strokeWidth=1;size=20;indent=5;align=center;labelPosition=center;" vertex="1" parent="K-cMVyKMl1qZpLkuBjMT-1">
          <mxGeometry x="1220" y="110" width="120" height="60" as="geometry" />
        </mxCell>
        <mxCell id="p0570ByOIUkRE8Gx7nmM-0" value="&lt;span style=&quot;font-size: 18px&quot;&gt;ログアウト&lt;br&gt;&lt;/span&gt;" style="verticalLabelPosition=middle;verticalAlign=middle;html=1;shape=mxgraph.basic.rect;fillColor2=none;strokeWidth=1;size=20;indent=5;align=center;labelPosition=center;" vertex="1" parent="K-cMVyKMl1qZpLkuBjMT-1">
          <mxGeometry x="1370" y="110" width="120" height="60" as="geometry" />
        </mxCell>
        <mxCell id="-sBUBLz52iKc99kf_8c3-0" value="" style="line;strokeWidth=1;rotatable=0;dashed=0;labelPosition=right;align=left;verticalAlign=middle;spacingTop=0;spacingLeft=6;points=[];portConstraint=eastwest;fillColor=none;" vertex="1" parent="K-cMVyKMl1qZpLkuBjMT-1">
          <mxGeometry x="148.5" y="200" width="1383" height="10" as="geometry" />
        </mxCell>
        <mxCell id="BnYQ9pVhGqKSi5AIIc0t-0" value="" style="line;strokeWidth=1;rotatable=0;dashed=0;labelPosition=right;align=left;verticalAlign=middle;spacingTop=0;spacingLeft=6;points=[];portConstraint=eastwest;fillColor=none;" vertex="1" parent="K-cMVyKMl1qZpLkuBjMT-1">
          <mxGeometry x="148.5" y="1010" width="1380" height="10" as="geometry" />
        </mxCell>
        <mxCell id="8hTqskznQWkwFOPj0-id-0" value="&lt;font style=&quot;font-size: 18px&quot;&gt;©️ジムトモ&lt;/font&gt;" style="text;html=1;strokeColor=none;fillColor=none;align=center;verticalAlign=middle;whiteSpace=wrap;rounded=0;" vertex="1" parent="K-cMVyKMl1qZpLkuBjMT-1">
          <mxGeometry x="790" y="1050" width="120" height="20" as="geometry" />
        </mxCell>
        <mxCell id="8hTqskznQWkwFOPj0-id-1" value="参加者一覧" style="text;strokeColor=none;fillColor=none;html=1;fontSize=24;fontStyle=1;verticalAlign=middle;align=center;rounded=0;sketch=0;" vertex="1" parent="K-cMVyKMl1qZpLkuBjMT-1">
          <mxGeometry x="260" y="270" width="190" height="40" as="geometry" />
        </mxCell>
        <mxCell id="8hTqskznQWkwFOPj0-id-2" value="" style="rounded=0;whiteSpace=wrap;html=1;sketch=0;fillColor=#ffffff;" vertex="1" parent="K-cMVyKMl1qZpLkuBjMT-1">
          <mxGeometry x="320" y="350" width="970" height="530" as="geometry" />
        </mxCell>
      </root>
    </mxGraphModel>
  </diagram>
</mxfile>
